# xmcd
#
# Track frame offsets:
#	150
#	11967
#	26288
#	38093
#	51623
#	65497
#	84722
#	99289
#	115560
#	130137
#	140571
#	152154
#
# Disc length: 2178 seconds
#
# Revision: 0
# Processed by: cddbd v1.5.1PL0 Copyright (c) Steve Scherf et al.
# Submitted via: EasyCDDAExtractor 8.2.3.1
#
DISCID=9d08800c
DTITLE=Various Artist - HILLCREST 27
DYEAR=2005
DGENRE=Country
TTITLE0=Thunder Road - Take It Like A Man
TTITLE1=Graham Clark - Hey Alright
TTITLE2=Michael Fix - Two Time Shuffle
TTITLE3=Desi Kay - You Just Don't Know It Yet
TTITLE4=Lonnie Spiker - A Little Lonelier Then This
TTITLE5=Mike Lee - Though And Though
TTITLE6=Nick Cesta - How Did Your Slip Through My Hands
TTITLE7=Skyla Spencer - Why Do You Do This To Me
TTITLE8=Darnell Miller - Hearts Don't Let Me Down
TTITLE9=Debbie Bergeron - Christmas Is My Favourite Time Of The Year
TTITLE10=Mike Miles - Christmas Eve
TTITLE11=Brad Kepler - Joyful Noises
EXTD=
EXTT0=
EXTT1=
EXTT2=
EXTT3=
EXTT4=
EXTT5=
EXTT6=
EXTT7=
EXTT8=
EXTT9=
EXTT10=
EXTT11=
PLAYORDER=
